<svg width="1440" height="670" viewBox="0 0 1440 670" fill="none" xmlns="http://www.w3.org/2000/svg">
<g clip-path="url(#clip0_1297_2051)">
<mask id="mask0_1297_2051" style="mask-type:luminance" maskUnits="userSpaceOnUse" x="0" y="0" width="1440" height="670">
<path d="M0 0H1440V670H0V0Z" fill="white"/>
</mask>
<g mask="url(#mask0_1297_2051)">
<g opacity="0.5">
<g opacity="0.8" filter="url(#filter0_f_1297_2051)">
<path d="M1019.8 -54.7217C969.738 -45.9244 930.592 -22.6398 915.048 5.76701C899.949 33.3595 914.623 62.4726 942.43 86.6733C969.963 110.637 1010.75 130.48 1060.99 132.784C1110.15 135.038 1152.95 117.889 1187.49 97.9105C1222.08 77.9097 1274.96 -8.6802 1269 -36.5C1263.02 -64.3463 1204.46 -78.6805 1162.5 -93.5C1120.15 -108.455 1067.44 -63.093 1019.8 -54.7217Z" fill="url(#paint0_linear_1297_2051)"/>
</g>
<g opacity="0.9" filter="url(#filter1_f_1297_2051)">
<path d="M723.072 -222.412C652.377 -210.959 613.095 -169.156 573.408 -131.725C536.259 -96.6883 499.957 -59.9134 506.777 -18.4124C514.024 25.6756 553.082 65.4702 610.312 92.8216C670.407 121.541 745.395 137.489 821.217 131.863C900.467 125.983 980.252 104.023 1021.34 62.3283C1060.46 22.6229 1035.59 -25.8114 1021.42 -71.3086C1007.7 -115.394 998.945 -162.806 942.301 -191.494C882.343 -221.861 798.43 -234.622 723.072 -222.412Z" fill="url(#paint1_linear_1297_2051)"/>
</g>
<g filter="url(#filter2_f_1297_2051)">
<path opacity="0.5" d="M568.033 -69.9185C519.278 -68.1799 469.394 -49.7537 449.114 -21.0255C430.559 5.25748 458.516 33.9264 475.948 60.5301C487.836 78.6706 505.407 94.4038 531.45 104.629C554.961 113.859 582.336 111.583 609.745 113.06C652.407 115.358 699.611 132.641 733.228 115.499C769.248 97.1317 776.755 61.7762 767.206 32.7623C758.097 5.09792 719.709 -11.8238 685.51 -29.4552C649.444 -48.0471 614.087 -71.5612 568.033 -69.9185Z" fill="#2200FF"/>
</g>
<g opacity="0.9" filter="url(#filter3_f_1297_2051)">
<path opacity="0.8" d="M354.316 -82.4192C301.108 -70.272 196.812 -64.284 158.499 -55C113.814 -55 261.58 30.6811 288.5 56.5C306.856 74.1084 336.648 101.589 368.305 107.458C396.881 112.755 434.377 111.569 465 107.458C512.664 101.061 558.002 114.417 590.064 88.3773C624.415 60.4762 622.436 19.7312 603.5 -10.4117C585.445 -39.152 538.247 -49.8519 495.461 -62.216C450.34 -75.2538 404.571 -93.8933 354.316 -82.4192Z" fill="url(#paint2_linear_1297_2051)"/>
</g>
</g>
</g>
</g>
<defs>
<filter id="filter0_f_1297_2051" x="769" y="-236.501" width="640.463" height="509.485" filterUnits="userSpaceOnUse" color-interpolation-filters="sRGB">
<feFlood flood-opacity="0" result="BackgroundImageFix"/>
<feBlend mode="normal" in="SourceGraphic" in2="BackgroundImageFix" result="shape"/>
<feGaussianBlur stdDeviation="70" result="effect1_foregroundBlur_1297_2051"/>
</filter>
<filter id="filter1_f_1297_2051" x="305.945" y="-427.003" width="936.404" height="759.987" filterUnits="userSpaceOnUse" color-interpolation-filters="sRGB">
<feFlood flood-opacity="0" result="BackgroundImageFix"/>
<feBlend mode="normal" in="SourceGraphic" in2="BackgroundImageFix" result="shape"/>
<feGaussianBlur stdDeviation="100" result="effect1_foregroundBlur_1297_2051"/>
</filter>
<filter id="filter2_f_1297_2051" x="282.998" y="-230" width="647.996" height="513" filterUnits="userSpaceOnUse" color-interpolation-filters="sRGB">
<feFlood flood-opacity="0" result="BackgroundImageFix"/>
<feBlend mode="normal" in="SourceGraphic" in2="BackgroundImageFix" result="shape"/>
<feGaussianBlur stdDeviation="80" result="effect1_foregroundBlur_1297_2051"/>
</filter>
<filter id="filter3_f_1297_2051" x="-49.8594" y="-286" width="866.857" height="597" filterUnits="userSpaceOnUse" color-interpolation-filters="sRGB">
<feFlood flood-opacity="0" result="BackgroundImageFix"/>
<feBlend mode="normal" in="SourceGraphic" in2="BackgroundImageFix" result="shape"/>
<feGaussianBlur stdDeviation="100" result="effect1_foregroundBlur_1297_2051"/>
</filter>
<linearGradient id="paint0_linear_1297_2051" x1="929.5" y1="-3.50048" x2="1357.49" y2="165.138" gradientUnits="userSpaceOnUse">
<stop stop-color="#FFF8C7"/>
<stop offset="1" stop-color="#FFF01B"/>
</linearGradient>
<linearGradient id="paint1_linear_1297_2051" x1="731.257" y1="-17.594" x2="1179.59" y2="186.149" gradientUnits="userSpaceOnUse">
<stop stop-color="#FF0099"/>
<stop offset="1" stop-color="#FFD600"/>
</linearGradient>
<linearGradient id="paint2_linear_1297_2051" x1="277.033" y1="29.2305" x2="537.097" y2="3.56983" gradientUnits="userSpaceOnUse">
<stop stop-color="#00FF99"/>
<stop offset="1" stop-color="#0084FF"/>
</linearGradient>
<clipPath id="clip0_1297_2051">
<rect width="1440" height="670" fill="white"/>
</clipPath>
</defs>
</svg>
